<?xml version="1.0" encoding="UTF-8"?>
<svg id="Layer_1" xmlns="http://www.w3.org/2000/svg" version="1.1" viewBox="0 0 2995 3053.01">
  <!-- Generator: Adobe Illustrator 30.0.0, SVG Export Plug-In . SVG Version: 2.1.1 Build 123)  -->
  <defs>
    <style>
      .st0 {
        fill: #d81f02;
      }

      .st1 {
        fill: #72c999;
      }

      .st2 {
        fill: #02ab4d;
      }

      .st3 {
        fill: #994f8f;
      }

      .st4 {
        fill: #fff671;
      }

      .st5 {
        fill: #ff9d50;
      }
    </style>
  </defs>
  <rect class="st2" x="2627.56" y="1788.38" width="373" height="217.19" transform="translate(-95.68 3643.66) rotate(-64.96)"/>
  <rect class="st5" x="1942.55" y="1293.77" width="1200" height="434.38" transform="translate(97.47 3175.03) rotate(-64.96)"/>
  <rect class="st2" x="2531.06" y="919.11" width="373" height="434.38" transform="translate(537.85 3117.5) rotate(-64.96)"/>
  <rect class="st5" x="2042.71" y="1789.13" width="434.38" height="373" transform="translate(-136.1 167.47) rotate(-4.12)"/>
  <rect class="st5" x="1786.91" y="942.19" width="434.38" height="1200" transform="translate(-462.54 985) rotate(-24.85)"/>
  <rect class="st2" x="1613.13" y="980.46" width="434.38" height="373" transform="translate(-320.94 877.23) rotate(-24.85)"/>
  <rect class="st2" x="1820.28" y="934.83" width="217.19" height="373" transform="translate(-292.64 914.42) rotate(-24.85)"/>
  <rect class="st3" x="820.88" y="977.33" width="500" height="1200"/>
  <rect class="st1" x="274.31" y="1435.94" width="797" height="283" transform="translate(-6.05 2.6) rotate(-.22)"/>
  <circle class="st0" cx="1557.39" cy="1870.88" r="306.06"/>
  <rect class="st4" x="1.88" y="977.33" width="500" height="1200"/>
</svg>